<svg xmlns="http://www.w3.org/2000/svg" viewBox="0 0 100 30" width="120" height="40"><path fill="#FF9900" d="M24.2,14.5c0,0-2.3,1.3-2.3,3.6c0,2.1,1.8,3.3,3.9,3.3c3.2,0,5.3-2.6,5.3-5.9c0-3.4-2.2-5.8-5.3-5.8C22.2,9.7,19.5,12.2,19.5,15c0,0.5,0,0.8,0.1,1.1l-4.2-0.2c-0.1-0.5-0.1-1-0.1-1.6c0-5.5,4-9.6,9.9-9.6c5.8,0,10.1,4.1,10.1,9.4c0,5-3.6,8.8-8.4,8.8c-2.4,0-4.1-1.1-4.1-3c0-1.6,1.4-2.5,2.9-2.5c1.1,0,1.9,0.3,1.9,0.3S24.2,14.6,24.2,14.5z M99.7,14.5c-0.2-1.8-1-2.9-2.7-2.9c-1.8,0-3.3,1.3-3.3,3.3c0,2.5,2.4,3.1,4.2,3.6c2.4,0.6,2.8,1.1,2.8,1.9c0,0.9-0.9,1.5-2.4,1.5c-2.1,0-2.9-0.8-3.1-2l-4,0.8c0.3,3,2.8,4.7,6.8,4.7c4.2,0,7.1-2.2,7.1-5.6C102.1,17.1,99.7,14.5,99.7,14.5z M96.7,14.1c0-0.9,0.6-1.5,1.6-1.5c0.9,0,1.5,0.5,1.6,1.4c0,0.1,0,0.1,0,0.2c-0.1,0-0.1,0-0.2,0C98.4,14.2,96.7,14.1,96.7,14.1z M71.1,11.6l-3.3,9.5h-4.3l3.3-9.5H71.1z M62.2,11.6l3.3,9.5h-4.3l-3.3-9.5H62.2z M89.9,12.5v8.6h-4V12.5h-3.3v-2h10.6v2H89.9z M52.5,11.6H56v9.5h-3.4v-6.2c0-2.2-2-2-2.5-0.1v6.3H46.8v-7c0-3.6,2.8-5.7,5.7-5.7H52.5z M77.2,11.6c3.9,0,6.2,2.8,6.2,6v0.2c-0.1,3.3-2.9,5.7-6.3,5.7s-6.2-2.8-6.2-6V12c0.1-0.2,0.1-0.3,0.1-0.4H77.2z M77.2,18.8c1.8,0,2.8-1.2,2.8-2.9v-0.5h-5.6v0.5C74.4,17.6,75.4,18.8,77.2,18.8z M4,17.2c-0.8-0.8-1.3-2-1.3-3.4c0-3.1,2.5-5.6,5.6-5.6c1.4,0,2.6,0.5,3.5,1.3l-2,1.8C9,10.6,8.2,10,7.2,10c-1.8,0-3.3,1.5-3.3,3.7c0,1.2,0.5,2.2,1.4,2.9L4,17.2z M90.4,23.3c-1.3-0.5-5.2-2.3-5.2-6.2c0-1.8,0.6-3.3,1.7-4.5C88,11.5,89.5,11,91.3,11c1.3,0,2.5,0.4,3.4,1.1c-1,1.1-1.7,2.5-1.7,4.1c0,3.3,2.9,4.5,4.8,5.2c-1.5,1.7-3.6,2.7-6,2.7C91.3,24.1,90.8,23.9,90.4,23.3z"/></svg>