<svg xmlns="http://www.w3.org/2000/svg" viewBox="0 0 24 24" fill="none" stroke="currentColor" stroke-width="2" stroke-linecap="round" stroke-linejoin="round"><path d="M5 18H3c-.6 0-1-.4-1-1V7c0-.6.4-1 1-1h10c.6 0 1 .4 1 1v11"/><path d="M14 9h7c.6 0 1 .4 1 1v10c0 .6-.4 1-1 1h-7c-.6 0-1-.4-1-1V10c0-.6.4-1 1-1z"/><path d="M10 6V5c0-.6-.4-1-1-1H6c-.6 0-1 .4-1 1v1"/><path d="M18 9V8c0-.6-.4-1-1-1h-3c-.6 0-1 .4-1 1v1"/><path d="M6 18v-5"/><path d="M10 18v-5"/><path d="M14 21v-5"/><path d="M18 21v-5"/></svg>