<svg xmlns="http://www.w3.org/2000/svg" viewBox="0 0 24 24" fill="#95BF47"><path d="M19.98 7.49c0 1.29-.53 2.45-1.39 3.28-1.57 1.52-3.95 2.05-6.27 1.48-1.29-.32-2.5-.9-3.56-1.7-1.2-.9-2.1-2.11-2.58-3.5C5.1 3.65 7.6.86 11.23.86c2.3 0 4.34.98 5.76 2.53.86.94 1.4 2.1 1.4 3.32l2.59.78zm-9.35-2.2c.49-.03.98-.03 1.46 0 .86.06 1.62.4 2.1.98.48.58.64 1.34.42 2.04-.22.7-.8 1.15-1.57 1.21-1.04.09-2.08.09-3.12 0-.77-.06-1.35-.51-1.57-1.21-.22-.7.01-1.46.49-2.04s1.24-.92 2.1-.98zM4.77 8.28c-.41.52-.78 1.07-1.12 1.66-2.53 4.34.13 9.68 4.89 11.23 4.76 1.55 9.87-1.05 11.47-5.59.54-1.52.68-3.1.41-4.66l-2.6-.78c.07.64.04 1.28-.1 1.9-.55 2.58-2.82 4.41-5.57 4.54-2.75.13-5.2-1.54-6-4-.8-2.46-.03-5.2 2.04-6.73.4-.29.83-.53 1.28-.73l-2.1-1.84z"/></svg>